<?xml version="1.0" standalone="no"?>
<!DOCTYPE svg PUBLIC "-//W3C//DTD SVG 20010904//EN"
 "http://www.w3.org/TR/2001/REC-SVG-20010904/DTD/svg10.dtd">
<svg version="1.0" xmlns="http://www.w3.org/2000/svg"
 width="1024.000000pt" height="1024.000000pt" viewBox="0 0 1024.000000 1024.000000"
 preserveAspectRatio="xMidYMid meet">

<g transform="translate(0.000000,1024.000000) scale(0.100000,-0.100000)"
fill="#000000" stroke="none">
<path d="M3895 8019 c-240 -40 -448 -203 -556 -434 -50 -106 -58 -164 -59
-416 l0 -227 -49 -32 c-93 -59 -165 -156 -195 -260 -14 -48 -16 -199 -18
-1267 -2 -667 -3 -1213 -3 -1214 0 0 -56 -4 -125 -8 -141 -9 -183 -24 -248
-89 -47 -47 -70 -95 -82 -170 -6 -31 -10 -296 -10 -589 0 -506 1 -535 20 -585
24 -66 69 -121 123 -152 47 -27 154 -50 195 -42 47 10 296 36 474 50 159 13
174 13 192 -2 35 -32 46 -76 46 -196 0 -63 3 -121 6 -130 7 -19 74 -22 92 -4
7 7 12 34 12 60 l0 48 43 0 c60 0 79 16 75 65 l-3 40 -57 3 c-43 2 -58 7 -58
17 0 11 13 15 48 15 56 0 92 21 92 55 0 14 8 29 19 35 21 11 134 14 144 4 3
-3 -10 -22 -29 -42 -53 -54 -68 -130 -39 -199 20 -48 41 -71 89 -95 94 -48
214 -11 264 82 44 84 19 191 -60 246 l-29 21 58 16 c104 28 643 41 1364 33
354 -3 699 -9 766 -12 l123 -7 27 30 27 30 59 -38 c71 -46 50 -42 412 -81 384
-41 461 -44 523 -24 61 21 124 73 160 134 l27 47 0 216 0 216 -37 60 c-30 48
-38 71 -38 108 0 37 8 60 38 108 l37 61 0 225 0 226 -27 51 c-29 56 -68 93
-132 127 -34 18 -62 22 -168 25 l-128 4 0 1208 0 1209 -25 80 c-32 100 -93
185 -174 242 l-61 43 0 223 c0 297 -20 385 -118 530 -79 117 -184 207 -307
264 -144 68 -42 63 -1420 65 -687 1 -1273 -2 -1300 -7z m2596 -331 c99 -49
178 -128 227 -226 l37 -76 3 -576 3 -577 -29 -54 c-35 -67 -107 -124 -175
-139 -32 -6 -506 -10 -1401 -10 -1496 0 -1413 -4 -1493 65 -23 19 -53 58 -67
87 l-26 52 0 563 0 563 25 65 c43 116 116 199 220 252 103 53 51 52 1371 50
l1230 -2 75 -37z m133 -1918 c60 -31 110 -88 125 -143 8 -30 11 -240 9 -752
l-3 -710 -1592 -3 -1593 -2 0 727 c0 698 1 730 20 768 10 22 25 47 32 55 29
35 88 71 129 79 24 5 670 8 1434 7 l1390 -1 49 -25z m-141 -1890 c121 -18 227
-93 227 -162 0 -62 -82 -148 -140 -148 -15 0 -41 11 -60 25 -51 38 -103 49
-160 35 -138 -33 -217 -180 -165 -308 32 -79 128 -142 216 -142 41 0 79 24 79
49 0 15 -11 20 -60 25 -70 8 -73 13 -68 121 l3 70 145 3 c80 1 155 0 167 -3
50 -12 53 -23 53 -223 0 -212 -1 -214 -76 -258 -44 -26 -48 -27 -157 -20 -231
14 -333 51 -438 155 -75 75 -103 122 -124 213 -38 160 -1 305 107 423 78 86
165 129 288 144 92 12 88 12 163 1z m-3075 -22 c14 -14 16 -206 2 -228 -7 -11
-43 -16 -167 -20 l-158 -5 -3 -79 -3 -79 147 7 c186 9 184 10 184 -114 0 -60
-4 -91 -13 -98 -7 -6 -76 -16 -153 -22 -76 -6 -145 -13 -151 -15 -10 -3 -13
-44 -13 -159 0 -127 -3 -157 -16 -170 -8 -9 -19 -16 -23 -16 -4 0 -45 -5 -90
-11 -63 -9 -85 -8 -96 1 -13 11 -15 83 -15 504 0 369 3 495 12 504 17 17 539
17 556 0z m794 -15 c62 -29 128 -91 158 -150 21 -40 25 -62 25 -138 0 -77 -4
-98 -27 -147 -15 -32 -48 -80 -73 -107 l-47 -50 45 -113 c60 -149 61 -153 42
-172 -13 -13 -39 -16 -131 -16 l-115 0 -23 53 c-12 28 -31 75 -42 102 l-20 50
-69 -3 c-39 -2 -72 -6 -75 -9 -2 -2 -7 -49 -10 -104 -3 -67 -9 -102 -18 -108
-21 -13 -193 -21 -214 -10 -17 9 -18 34 -18 467 0 353 3 461 13 471 9 9 75 11
282 9 252 -3 273 -4 317 -25z m592 11 c14 -13 16 -66 16 -427 0 -357 -2 -416
-16 -435 -14 -20 -23 -22 -119 -22 -96 0 -105 2 -119 22 -14 19 -16 77 -16
431 0 262 4 415 10 428 10 17 22 19 120 19 85 0 112 -3 124 -16z m743 -6 c120
-44 206 -121 256 -226 28 -60 32 -78 35 -179 3 -87 0 -123 -13 -165 -49 -148
-151 -241 -312 -282 -47 -12 -114 -16 -287 -16 -213 0 -226 1 -236 19 -15 30
-14 843 2 859 9 9 79 12 255 12 224 0 247 -2 300 -22z m1941 -110 l3 -128
-176 0 -175 0 0 -59 c0 -68 4 -71 106 -71 91 0 95 -6 92 -125 l-3 -100 -97 3
-98 4 0 -69 0 -70 163 -23 c89 -12 168 -27 175 -32 8 -7 12 -44 12 -119 l0
-109 -35 0 c-19 0 -142 14 -273 30 -180 23 -243 35 -262 49 l-25 18 -3 454
c-1 250 0 460 3 467 3 10 68 12 297 10 l293 -3 3 -127z m-3323 -1242 c88 -37
63 -146 -34 -146 -66 0 -102 65 -65 118 13 19 39 36 62 41 1 1 18 -5 37 -13z"/>
<path d="M6100 7400 c-100 -47 -154 -128 -154 -231 0 -53 5 -74 28 -113 85
-145 274 -166 395 -44 48 48 71 103 71 173 0 81 -43 156 -114 199 -65 41 -159
47 -226 16z"/>
<path d="M3933 7215 c-63 -27 -63 -30 -63 -489 l0 -416 28 -30 c39 -45 97 -51
139 -16 54 45 54 49 51 487 -3 443 -2 434 -64 464 -39 18 -50 18 -91 0z"/>
<path d="M3931 5547 c-13 -6 -33 -24 -43 -38 -19 -25 -20 -45 -19 -449 2 -438
2 -446 45 -482 28 -25 89 -18 123 14 52 47 53 59 53 460 0 205 -5 391 -10 413
-17 75 -88 114 -149 82z"/>
<path d="M3850 3500 l0 -113 98 5 c60 3 108 11 127 21 62 32 78 118 31 166
-25 25 -33 26 -141 29 l-115 4 0 -112z"/>
<path d="M5230 3404 l0 -206 108 3 c98 4 113 7 150 32 55 36 84 94 83 164 0
66 -21 112 -71 157 -48 43 -93 56 -192 56 l-78 0 0 -206z"/>
<path d="M4452 2588 c-5 -13 -6 -95 -3 -183 l6 -160 29 -3 c61 -7 75 3 78 61
l3 52 22 -35 c42 -68 60 -80 113 -80 27 0 52 5 55 11 4 5 -9 34 -29 64 -31 47
-33 55 -20 66 49 41 56 129 12 176 -36 40 -79 53 -173 53 -80 0 -86 -2 -93
-22z m183 -118 c0 -17 -7 -27 -26 -34 -39 -13 -59 -2 -59 34 0 30 1 31 43 28
37 -3 42 -6 42 -28z"/>
<path d="M5500 2600 c-12 -7 -14 -36 -12 -162 2 -84 6 -163 9 -175 5 -22 9
-23 112 -23 118 0 131 6 131 55 0 45 -16 55 -88 55 -39 0 -61 4 -57 10 3 6 26
10 50 10 50 0 52 2 61 58 l7 42 -57 0 c-47 0 -57 3 -54 16 2 12 18 16 66 18
69 3 82 12 82 58 0 17 -7 31 -19 38 -24 12 -211 13 -231 0z"/>
<path d="M6314 2600 c-11 -11 -9 -285 2 -337 4 -22 9 -23 107 -23 56 0 108 4
115 9 9 5 12 24 10 52 l-3 44 -65 5 -65 5 -5 125 -5 125 -40 3 c-22 2 -45 -2
-51 -8z"/>
<path d="M5040 2512 c0 -49 3 -130 6 -180 l7 -92 48 0 49 0 0 55 c0 30 4 55 8
55 11 0 42 -34 42 -45 0 -5 12 -22 27 -37 20 -21 36 -28 64 -28 71 0 73 5 33
76 -20 35 -31 64 -24 64 6 0 20 19 30 43 24 53 13 105 -30 149 -28 28 -30 28
-144 28 l-116 0 0 -88z m198 -38 c2 -16 -5 -25 -27 -34 -42 -17 -61 -7 -61 30
0 30 1 31 43 28 34 -2 43 -7 45 -24z"/>
<path d="M5956 2592 c-13 -21 -116 -317 -116 -333 0 -16 8 -19 49 -19 45 0 50
2 61 30 12 28 16 30 67 30 51 0 55 -2 64 -30 10 -28 14 -30 65 -30 30 0 54 3
54 8 0 4 -26 85 -57 179 l-58 173 -62 0 c-34 0 -64 -4 -67 -8z m77 -172 c4
-15 0 -20 -14 -20 -20 0 -23 8 -13 34 7 20 20 13 27 -14z"/>
<path d="M1644 2088 c3 -15 8 -32 11 -38 4 -6 1 -9 -7 -8 -7 2 -14 -8 -16 -22
-2 -15 0 -20 5 -13 4 6 8 -41 8 -105 0 -83 3 -116 13 -120 6 -2 12 -12 12 -23
0 -10 4 -19 10 -19 5 0 14 -18 20 -40 6 -21 17 -46 25 -54 8 -8 15 -27 15 -41
0 -19 4 -26 14 -22 9 4 23 -12 40 -43 27 -49 132 -159 152 -160 5 0 18 -18 28
-40 13 -29 23 -40 40 -40 12 0 29 -9 39 -20 9 -11 26 -20 36 -20 11 0 22 -9
26 -19 3 -10 17 -22 30 -25 14 -4 25 -11 25 -16 0 -5 16 -12 35 -16 19 -3 35
-9 35 -13 0 -4 35 -16 78 -26 42 -9 79 -21 82 -26 6 -9 131 -31 185 -33 17 -1
35 -4 40 -8 6 -4 55 -10 110 -14 55 -4 103 -12 107 -18 12 -19 382 -24 1738
-25 1411 -1 1700 3 1700 26 0 10 21 13 88 14 48 0 123 4 167 9 44 5 118 14
165 19 47 5 105 16 130 25 25 8 81 22 124 31 43 9 85 23 93 31 8 8 23 14 34
14 10 0 19 5 19 10 0 6 9 10 20 10 10 0 30 11 44 25 14 14 32 25 41 25 8 0 15
9 15 20 0 13 7 20 20 20 13 0 20 7 20 20 0 13 7 20 20 20 11 0 20 5 20 10 0 6
9 10 20 10 17 0 20 7 20 40 0 25 5 40 13 40 8 0 8 3 -2 9 -11 7 -6 11 20 14
19 2 -1048 5 -2371 6 -1521 1 -2440 5 -2500 11 -170 18 -334 78 -478 174 -67
45 -199 170 -247 236 -15 19 -31 34 -36 32 -6 -1 -8 2 -4 8 3 5 -3 24 -15 40
-12 17 -35 56 -51 88 -19 38 -28 48 -25 30z"/>
</g>
</svg>
